<svg width="168" height="48" viewBox="0 0 168 48" fill="none" xmlns="http://www.w3.org/2000/svg">
<path d="M38.6943 4.53418C38.2917 4.73999 37.9766 5.04969 37.7646 5.41406C37.1328 6.50071 36.7955 8.05967 35.6777 8.63086L35.0029 8.97559C20.158 16.5585 18.4387 13.1768 3.59375 20.7598L8.06348 29.5537C22.9084 21.9708 21.1892 18.5878 36.0342 11.0049L36.709 10.6602C37.8268 10.0893 39.283 10.733 40.5312 10.8594C40.9501 10.9017 41.3861 10.8279 41.7891 10.6221L47.8799 7.51074V48H0.308594L9.18457 43.4658C9.58753 43.26 9.90321 42.9505 10.1152 42.5859C10.7471 41.4992 11.0842 39.9402 12.2021 39.3691L12.877 39.0244C27.7219 31.4415 29.4412 34.8232 44.2861 27.2402L39.8164 18.4463C24.9715 26.0292 26.6905 29.4122 11.8457 36.9951L11.1709 37.3398C10.0529 37.9109 8.59607 37.2669 7.34766 37.1406C6.92896 37.0983 6.49365 37.1722 6.09082 37.3779L0 40.4883V0H47.5713L38.6943 4.53418ZM7.85254 24.1221L8.72559 27.5107L5.63086 21.4229L7.85254 24.1221ZM42.249 26.5771L40.0264 23.8779L39.1543 20.4893L42.249 26.5771Z" fill="#DD2424"/>
<path d="M117.469 2.86829C122.503 2.86829 126.584 6.93546 126.584 11.9868V15.5854H120.021V11.9868C120.021 10.5725 118.879 9.42588 117.469 9.42588C116.06 9.42588 114.917 10.5725 114.917 11.9868C114.918 16.4082 116.93 18.8032 119.791 21.6734C122.757 24.6503 126.584 28.7273 126.584 36.016C126.583 41.0666 122.502 45.1317 117.469 45.1317C112.436 45.1317 108.356 41.0666 108.355 36.016V32.4146H114.917V36.016C114.918 37.4296 116.06 38.577 117.469 38.577C118.878 38.577 120.02 37.4296 120.021 36.016C120.021 31.5942 118.008 29.1997 115.148 26.3295C112.182 23.3527 108.355 19.2755 108.355 11.9868C108.355 6.93547 112.435 2.86829 117.469 2.86829Z" fill="#050A18"/>
<path d="M82.5425 20.7073H87.6466V3.16098H94.209V44.839H87.6466V27.2927H82.5425V44.839H75.9801V3.16098H82.5425V20.7073Z" fill="#050A18"/>
<path d="M104.563 44.839H98.0007V3.16098H104.563V44.839Z" fill="#050A18"/>
<path d="M156.333 38.2683H168V44.839H149.771V3.16098H156.333V38.2683Z" fill="#050A18"/>
<path d="M63.949 2.86801C68.9827 2.86801 73.0634 6.96297 73.0634 12.0144V15.5839H66.501V12.0144C66.501 10.6 65.3584 9.45338 63.949 9.45338C62.5395 9.45338 61.3969 10.6 61.3969 12.0144V35.9856C61.3978 37.3992 62.5401 38.5466 63.949 38.5466C65.3578 38.5466 66.5001 37.3992 66.501 35.9856V32.4132H73.0634V35.9856C73.0625 41.0362 68.9822 45.132 63.949 45.132C58.9157 45.132 54.8354 41.0362 54.8345 35.9856V12.0144C54.8354 6.96376 58.9157 2.86801 63.949 2.86801Z" fill="#050A18"/>
<path d="M147.729 9.73171H136.063V20.7073H146.271V27.2927H136.063V38.2683H147.729V44.839H129.5V3.16098H147.729V9.73171Z" fill="#050A18"/>
</svg>
